# xmcd CD database file
#
# Track frame offsets:
#	150
#	25802
#	46531
#	70822
#	91972
#	102131
#	117781
#	142884
#	160658
#	177534
#	202735
#	225742
#	238942
#
# Disc length: 4054 seconds
#
# Revision: 0
# Processed by: cddbd v1.5.2PL0 Copyright (c) Steve Scherf et al.
# Submitted via: CDex 1.51
#
DISCID=9c0fd40d
DTITLE=Harcsa Veronika - Lifelover
DYEAR=1900
DGENRE=Jazz
TTITLE0=Lifelover
TTITLE1=Moss and Lichen
TTITLE2=Stop haunting
TTITLE3=Go on swimming
TTITLE4=Interlude
TTITLE5=Huddle yourself up
TTITLE6=Perilous
TTITLE7=Lacs
TTITLE8=Glisten
TTITLE9=Saying no
TTITLE10=Drive into the sun
TTITLE11=Everybody's gotta learn sometime
TTITLE12=Come as you are for my lover stay
EXTD=
EXTT0=
EXTT1=
EXTT2=
EXTT3=
EXTT4=
EXTT5=
EXTT6=
EXTT7=
EXTT8=
EXTT9=
EXTT10=
EXTT11=
EXTT12=
PLAYORDER=
